<mxfile host="app.diagrams.net" modified="2021-08-14T18:29:20.336Z" agent="5.0 (Windows NT 10.0; Win64; x64) AppleWebKit/537.36 (KHTML, like Gecko) Chrome/92.0.4515.107 Safari/537.36" etag="abEVKo23XzqvsrP66bZE" version="14.9.3" type="github" pages="3">
  <diagram id="QsLXxYbNIhR7xJ2veZZP" name="Page-1">
    <mxGraphModel dx="973" dy="594" grid="0" gridSize="10" guides="1" tooltips="1" connect="1" arrows="1" fold="1" page="1" pageScale="1" pageWidth="1200" pageHeight="1920" math="0" shadow="0">
      <root>
        <mxCell id="0" />
        <mxCell id="1" parent="0" />
        <mxCell id="Vm_ySZ9B5KQhyhGUbSri-14" value="" style="rounded=1;whiteSpace=wrap;html=1;arcSize=2;shadow=1;" vertex="1" parent="1">
          <mxGeometry x="510" y="110" width="290" height="380" as="geometry" />
        </mxCell>
        <mxCell id="Vm_ySZ9B5KQhyhGUbSri-2" value="&lt;b&gt;CREATE SOCKET&lt;/b&gt;" style="rounded=0;whiteSpace=wrap;html=1;fillColor=#dae8fc;strokeColor=#6c8ebf;" vertex="1" parent="1">
          <mxGeometry x="580" y="160" width="150" height="60" as="geometry" />
        </mxCell>
        <mxCell id="Vm_ySZ9B5KQhyhGUbSri-6" value="&lt;b&gt;BIND&lt;/b&gt;" style="rounded=0;whiteSpace=wrap;html=1;fillColor=#dae8fc;strokeColor=#6c8ebf;" vertex="1" parent="1">
          <mxGeometry x="580" y="220" width="150" height="60" as="geometry" />
        </mxCell>
        <mxCell id="Vm_ySZ9B5KQhyhGUbSri-7" value="&lt;b&gt;LISTEN&lt;/b&gt;" style="rounded=0;whiteSpace=wrap;html=1;fillColor=#dae8fc;strokeColor=#6c8ebf;" vertex="1" parent="1">
          <mxGeometry x="580" y="280" width="150" height="60" as="geometry" />
        </mxCell>
        <mxCell id="Vm_ySZ9B5KQhyhGUbSri-11" style="edgeStyle=orthogonalEdgeStyle;rounded=0;orthogonalLoop=1;jettySize=auto;html=1;exitX=1;exitY=0.5;exitDx=0;exitDy=0;entryX=1;entryY=0.5;entryDx=0;entryDy=0;" edge="1" parent="1" source="Vm_ySZ9B5KQhyhGUbSri-8" target="Vm_ySZ9B5KQhyhGUbSri-9">
          <mxGeometry relative="1" as="geometry" />
        </mxCell>
        <mxCell id="Vm_ySZ9B5KQhyhGUbSri-8" value="&lt;b&gt;ACCEPT&lt;/b&gt;" style="rounded=0;whiteSpace=wrap;html=1;fillColor=#d5e8d4;strokeColor=#82b366;" vertex="1" parent="1">
          <mxGeometry x="580" y="340" width="150" height="60" as="geometry" />
        </mxCell>
        <mxCell id="Vm_ySZ9B5KQhyhGUbSri-10" style="edgeStyle=orthogonalEdgeStyle;rounded=0;orthogonalLoop=1;jettySize=auto;html=1;exitX=0;exitY=0.5;exitDx=0;exitDy=0;entryX=0;entryY=0.5;entryDx=0;entryDy=0;" edge="1" parent="1" source="Vm_ySZ9B5KQhyhGUbSri-9" target="Vm_ySZ9B5KQhyhGUbSri-8">
          <mxGeometry relative="1" as="geometry" />
        </mxCell>
        <mxCell id="Vm_ySZ9B5KQhyhGUbSri-9" value="&lt;b&gt;CONNECTED SOCKET&lt;/b&gt;" style="rounded=0;whiteSpace=wrap;html=1;fillColor=#fff2cc;strokeColor=#d6b656;" vertex="1" parent="1">
          <mxGeometry x="580" y="400" width="150" height="60" as="geometry" />
        </mxCell>
        <mxCell id="Vm_ySZ9B5KQhyhGUbSri-12" value="" style="shape=image;verticalLabelPosition=bottom;labelBackgroundColor=#ffffff;verticalAlign=top;aspect=fixed;imageAspect=0;image=https://cdn.pixabay.com/photo/2019/02/28/14/01/browser-4026002_1280.png;" vertex="1" parent="1">
          <mxGeometry x="190" y="240" width="178.49" height="127.69" as="geometry" />
        </mxCell>
        <mxCell id="Vm_ySZ9B5KQhyhGUbSri-13" value="&lt;b&gt;&lt;font style=&quot;font-size: 18px&quot;&gt;CLIENT&lt;/font&gt;&lt;/b&gt;" style="text;html=1;strokeColor=none;fillColor=none;align=center;verticalAlign=middle;whiteSpace=wrap;rounded=0;" vertex="1" parent="1">
          <mxGeometry x="259.24" y="270" width="40" height="20" as="geometry" />
        </mxCell>
        <mxCell id="Vm_ySZ9B5KQhyhGUbSri-15" value="&lt;b&gt;&lt;font style=&quot;font-size: 15px&quot;&gt;WEB SERVER&lt;/font&gt;&lt;/b&gt;" style="text;html=1;strokeColor=none;fillColor=none;align=center;verticalAlign=middle;whiteSpace=wrap;rounded=0;" vertex="1" parent="1">
          <mxGeometry x="590" y="130" width="130" height="20" as="geometry" />
        </mxCell>
        <mxCell id="Vm_ySZ9B5KQhyhGUbSri-17" value="" style="endArrow=classic;startArrow=classic;html=1;entryX=0.003;entryY=0.766;entryDx=0;entryDy=0;entryPerimeter=0;" edge="1" parent="1" target="Vm_ySZ9B5KQhyhGUbSri-14">
          <mxGeometry width="50" height="50" relative="1" as="geometry">
            <mxPoint x="370" y="320" as="sourcePoint" />
            <mxPoint x="610" y="330" as="targetPoint" />
            <Array as="points">
              <mxPoint x="460" y="320" />
              <mxPoint x="460" y="401" />
            </Array>
          </mxGeometry>
        </mxCell>
      </root>
    </mxGraphModel>
  </diagram>
  <diagram id="TQQfSP_AdXuZvUiYzUUh" name="Page-2">
    <mxGraphModel dx="513" dy="295" grid="0" gridSize="10" guides="1" tooltips="1" connect="1" arrows="1" fold="1" page="1" pageScale="1" pageWidth="1200" pageHeight="1920" math="0" shadow="0">
      <root>
        <mxCell id="qyQaZUphG7Kwz5ucg-TK-0" />
        <mxCell id="qyQaZUphG7Kwz5ucg-TK-1" parent="qyQaZUphG7Kwz5ucg-TK-0" />
        <mxCell id="qyQaZUphG7Kwz5ucg-TK-2" value="&lt;b&gt;Flask&lt;/b&gt;" style="rounded=1;whiteSpace=wrap;html=1;shadow=1;fillColor=#dae8fc;strokeColor=#6c8ebf;" vertex="1" parent="qyQaZUphG7Kwz5ucg-TK-1">
          <mxGeometry x="440" y="210" width="110" height="40" as="geometry" />
        </mxCell>
        <mxCell id="qyQaZUphG7Kwz5ucg-TK-3" value="&lt;b&gt;Django&lt;/b&gt;" style="rounded=1;whiteSpace=wrap;html=1;shadow=1;fillColor=#dae8fc;strokeColor=#6c8ebf;" vertex="1" parent="qyQaZUphG7Kwz5ucg-TK-1">
          <mxGeometry x="440" y="260" width="110" height="40" as="geometry" />
        </mxCell>
        <mxCell id="qyQaZUphG7Kwz5ucg-TK-4" value="&lt;b&gt;Nginx uSWGI&lt;/b&gt;" style="rounded=1;whiteSpace=wrap;html=1;shadow=1;fillColor=#d5e8d4;strokeColor=#82b366;" vertex="1" parent="qyQaZUphG7Kwz5ucg-TK-1">
          <mxGeometry x="250" y="210" width="110" height="40" as="geometry" />
        </mxCell>
        <mxCell id="qyQaZUphG7Kwz5ucg-TK-5" value="&lt;b&gt;Gunicorn&lt;/b&gt;" style="rounded=1;whiteSpace=wrap;html=1;shadow=1;fillColor=#d5e8d4;strokeColor=#82b366;" vertex="1" parent="qyQaZUphG7Kwz5ucg-TK-1">
          <mxGeometry x="250" y="260" width="110" height="40" as="geometry" />
        </mxCell>
        <mxCell id="qyQaZUphG7Kwz5ucg-TK-7" value="&lt;b&gt;WSGI&lt;/b&gt;" style="rounded=1;whiteSpace=wrap;html=1;shadow=1;fillColor=#fff2cc;strokeColor=#d6b656;" vertex="1" parent="qyQaZUphG7Kwz5ucg-TK-1">
          <mxGeometry x="370" y="180" width="60" height="150" as="geometry" />
        </mxCell>
      </root>
    </mxGraphModel>
  </diagram>
  <diagram id="pPMYn3h-vdJxKKHPc8zV" name="Page-3">
    <mxGraphModel dx="898" dy="517" grid="0" gridSize="10" guides="1" tooltips="1" connect="1" arrows="1" fold="1" page="1" pageScale="1" pageWidth="1200" pageHeight="1920" math="0" shadow="0">
      <root>
        <mxCell id="bzAnou7IuqfyS3qq1DSx-0" />
        <mxCell id="bzAnou7IuqfyS3qq1DSx-1" parent="bzAnou7IuqfyS3qq1DSx-0" />
        <mxCell id="bzAnou7IuqfyS3qq1DSx-3" value="&lt;b&gt;WSGI SERVER&lt;/b&gt;" style="rounded=1;whiteSpace=wrap;html=1;shadow=1;fillColor=#d5e8d4;strokeColor=#82b366;" vertex="1" parent="bzAnou7IuqfyS3qq1DSx-1">
          <mxGeometry x="337" y="129" width="120" height="60" as="geometry" />
        </mxCell>
        <mxCell id="bzAnou7IuqfyS3qq1DSx-4" value="&lt;b&gt;&lt;font color=&quot;#ffffff&quot; style=&quot;background-color: rgb(0 , 0 , 0)&quot;&gt;FRAMEWORK&lt;/font&gt;&lt;/b&gt;" style="rounded=1;whiteSpace=wrap;html=1;strokeWidth=2;fillWeight=4;hachureGap=8;hachureAngle=45;fillColor=#1ba1e2;sketch=1;shadow=1;" vertex="1" parent="bzAnou7IuqfyS3qq1DSx-1">
          <mxGeometry x="656" y="137" width="106" height="52" as="geometry" />
        </mxCell>
        <mxCell id="bzAnou7IuqfyS3qq1DSx-5" value="" style="endArrow=classic;html=1;exitX=0.5;exitY=1;exitDx=0;exitDy=0;" edge="1" parent="bzAnou7IuqfyS3qq1DSx-1" source="bzAnou7IuqfyS3qq1DSx-3">
          <mxGeometry width="50" height="50" relative="1" as="geometry">
            <mxPoint x="584" y="382" as="sourcePoint" />
            <mxPoint x="397" y="524" as="targetPoint" />
          </mxGeometry>
        </mxCell>
        <mxCell id="bzAnou7IuqfyS3qq1DSx-6" value="" style="endArrow=classic;html=1;exitX=0.5;exitY=1;exitDx=0;exitDy=0;" edge="1" parent="bzAnou7IuqfyS3qq1DSx-1">
          <mxGeometry width="50" height="50" relative="1" as="geometry">
            <mxPoint x="708.5" y="189" as="sourcePoint" />
            <mxPoint x="708.5" y="524" as="targetPoint" />
          </mxGeometry>
        </mxCell>
        <mxCell id="bzAnou7IuqfyS3qq1DSx-7" value="&lt;b&gt;WSGI INTERFACE&lt;/b&gt;" style="text;html=1;strokeColor=none;fillColor=none;align=center;verticalAlign=middle;whiteSpace=wrap;rounded=0;shadow=1;" vertex="1" parent="bzAnou7IuqfyS3qq1DSx-1">
          <mxGeometry x="483" y="187" width="147" height="20" as="geometry" />
        </mxCell>
        <mxCell id="bzAnou7IuqfyS3qq1DSx-9" value="" style="endArrow=classic;html=1;shadow=1;" edge="1" parent="bzAnou7IuqfyS3qq1DSx-1">
          <mxGeometry width="50" height="50" relative="1" as="geometry">
            <mxPoint x="398" y="247" as="sourcePoint" />
            <mxPoint x="705" y="247" as="targetPoint" />
          </mxGeometry>
        </mxCell>
        <mxCell id="bzAnou7IuqfyS3qq1DSx-10" value="&lt;b&gt;callback () + server headers + CGI envs&lt;/b&gt;" style="text;html=1;strokeColor=none;fillColor=none;align=center;verticalAlign=middle;whiteSpace=wrap;rounded=0;shadow=1;" vertex="1" parent="bzAnou7IuqfyS3qq1DSx-1">
          <mxGeometry x="415" y="223" width="273" height="20" as="geometry" />
        </mxCell>
        <mxCell id="bzAnou7IuqfyS3qq1DSx-11" value="" style="endArrow=classic;html=1;shadow=1;" edge="1" parent="bzAnou7IuqfyS3qq1DSx-1">
          <mxGeometry width="50" height="50" relative="1" as="geometry">
            <mxPoint x="708" y="296" as="sourcePoint" />
            <mxPoint x="404" y="296" as="targetPoint" />
          </mxGeometry>
        </mxCell>
        <mxCell id="bzAnou7IuqfyS3qq1DSx-12" value="&lt;b&gt;result = response headers + status + body&lt;/b&gt;" style="text;html=1;align=center;verticalAlign=middle;resizable=0;points=[];autosize=1;strokeColor=none;" vertex="1" parent="bzAnou7IuqfyS3qq1DSx-1">
          <mxGeometry x="431" y="275" width="251" height="18" as="geometry" />
        </mxCell>
        <mxCell id="bzAnou7IuqfyS3qq1DSx-13" value="" style="curved=1;endArrow=classic;html=1;shadow=1;" edge="1" parent="bzAnou7IuqfyS3qq1DSx-1">
          <mxGeometry width="50" height="50" relative="1" as="geometry">
            <mxPoint x="408" y="316" as="sourcePoint" />
            <mxPoint x="408" y="407" as="targetPoint" />
            <Array as="points">
              <mxPoint x="528" y="302" />
              <mxPoint x="522" y="422" />
            </Array>
          </mxGeometry>
        </mxCell>
        <mxCell id="bzAnou7IuqfyS3qq1DSx-14" value="" style="shape=image;html=1;verticalAlign=top;verticalLabelPosition=bottom;labelBackgroundColor=#ffffff;imageAspect=0;aspect=fixed;image=https://cdn2.iconfinder.com/data/icons/designer-skills/128/react-128.png;rounded=1;shadow=1;fillColor=#ffffff;" vertex="1" parent="bzAnou7IuqfyS3qq1DSx-1">
          <mxGeometry x="128" y="267" width="128" height="128" as="geometry" />
        </mxCell>
        <mxCell id="bzAnou7IuqfyS3qq1DSx-15" value="&lt;b&gt;final response: status, response_headers, result (response body)&lt;/b&gt;" style="text;html=1;strokeColor=none;fillColor=none;align=left;verticalAlign=middle;whiteSpace=wrap;rounded=0;shadow=1;" vertex="1" parent="bzAnou7IuqfyS3qq1DSx-1">
          <mxGeometry x="534" y="325" width="166" height="75" as="geometry" />
        </mxCell>
        <mxCell id="bzAnou7IuqfyS3qq1DSx-16" value="" style="curved=1;endArrow=classic;html=1;shadow=1;" edge="1" parent="bzAnou7IuqfyS3qq1DSx-1">
          <mxGeometry width="50" height="50" relative="1" as="geometry">
            <mxPoint x="396" y="407" as="sourcePoint" />
            <mxPoint x="253" y="321" as="targetPoint" />
            <Array as="points">
              <mxPoint x="315" y="413" />
              <mxPoint x="322" y="310" />
            </Array>
          </mxGeometry>
        </mxCell>
        <mxCell id="bzAnou7IuqfyS3qq1DSx-17" value="&lt;b&gt;client&lt;/b&gt;" style="text;html=1;strokeColor=none;fillColor=none;align=center;verticalAlign=middle;whiteSpace=wrap;rounded=0;shadow=1;" vertex="1" parent="bzAnou7IuqfyS3qq1DSx-1">
          <mxGeometry x="172" y="250" width="40" height="20" as="geometry" />
        </mxCell>
      </root>
    </mxGraphModel>
  </diagram>
</mxfile>
